<?xml version="1.0" encoding="UTF-8"?>
<svg width="752pt" height="752pt" version="1.1" viewBox="0 0 752 752" xmlns="http://www.w3.org/2000/svg">
 <g fill="#00449e">
  <path d="m284.55 214.51c13.262-38.359 49.25-65.828 91.402-65.828 42.336 0 78.422 27.656 91.59 66.207-28.699 17.238-57.492-2.1797-58.723-3.0312-4.1719-2.9375-9.9492-2.0859-12.98 1.9883-0.37891 0.47266-35.137 44.609-111.29 0.66406z"/>
  <path d="m472.94 247.38c0 56.168-44.703 124.74-96.988 124.74-52.191 0-96.992-68.574-96.992-124.74 0-4.6406 0.28516-9.1875 0.94922-13.641 26.145 14.207 48.402 19.133 66.684 19.133 29.738 0 49.156-13.262 58.25-21.312 15.535 8.0508 41.676 14.871 67.156 2.3672 0.66016 4.4531 0.94141 8.9023 0.94141 13.453z"/>
  <path d="m365 449.08-15.934 72.035 26.91 31.836 26.914-31.836-15.926-72.035z"/>
  <path d="m364.98 430.14h21.996l9.2305-39.645h-40.375z"/>
  <path d="m428.8 390.49h-13.148l-11.41 49.02 18.152 82.09c0.55859 2.5781-0.46875 6.3008-2.0156 8.1562l-37.176 43.973c-1.8047 2.1289-4.4492 3.3594-7.2344 3.3594s-5.4297-1.2305-7.2344-3.3594l-37.176-43.973c-1.4609-1.75-2.543-5.7344-2.0156-8.1562l18.156-82.078-11.312-49.031h-13.191c-67.914 0-123.13 55.316-123.13 123.13v80.223c0 5.207 4.2617 9.4727 9.4727 9.4727h65.246l-0.003906-0.007812v-86.516c0-5.2305 4.2383-9.4727 9.4727-9.4727s9.4727 4.2422 9.4727 9.4727v86.516l-0.003906 0.007812h164.51l-0.003907-0.007812v-86.516c0-5.2305 4.2383-9.4727 9.4727-9.4727s9.4727 4.2422 9.4727 9.4727v86.523h65.293c5.2109 0 9.4727-4.2617 9.4727-9.4727v-80.227c0-67.812-55.219-123.13-123.13-123.13z"/>
 </g>
</svg>
