<?xml version="1.0" encoding="UTF-8"?>
<svg width="752pt" height="752pt" version="1.1" viewBox="0 0 752 752" xmlns="http://www.w3.org/2000/svg">
 <g fill="#00449e">
  <path d="m406.5 394.77c-2.5234-2.5234-6-3.9648-9.5664-3.9648-7.4609 0-13.527 6.0664-13.527 13.535 0 3.6094 1.4062 7.0156 3.957 9.5664l10.84 10.832 19.137-19.133z"/>
  <path d="m316.8 279.8h0.51172c-0.30469-2.4258-0.51172-4.8906-0.51172-7.3984v-22.199c-8.1602 0-14.801 6.6367-14.801 14.801 0 8.1602 6.6367 14.797 14.801 14.797z"/>
  <path d="m398.2 339.72-2.3242-11.625c-6.2227 2.2305-12.895 3.5078-19.875 3.5078-6.9766 0-13.652-1.2812-19.875-3.5078l-2.3242 11.648v21.461h44.398z"/>
  <path d="m420.4 245.63c0-7.3555-4.6914-13.852-11.66-16.184-4.6562-1.5469-8.9609-4.2109-12.453-7.6953l-5.4844-5.4766-3.8047 3.8047c-4.8477 4.8398-11.246 8.043-18.027 9.0039l-22.723 3.25c-8.3477 1.1914-14.645 8.4492-14.645 16.879v23.191c0 24.484 19.914 44.398 44.398 44.398s44.398-19.914 44.398-44.398zm-66.598 4.5742c4.0859 0 7.3984 3.3164 7.3984 7.3984 0 4.0859-3.3164 7.3984-7.3984 7.3984-4.0859 0-7.3984-3.3164-7.3984-7.3984s3.3164-7.3984 7.3984-7.3984zm50.238 34.469c-5.3438 10.691-16.086 17.328-28.039 17.328-11.949 0-22.695-6.6367-28.039-17.332l-0.77734-1.5547 13.238-6.6211 0.78125 1.5625c2.8164 5.6406 8.4883 9.1445 14.797 9.1445 6.3125 0 11.98-3.5078 14.801-9.1445l0.77734-1.5625 13.238 6.6211zm-5.8398-19.668c-4.0859 0-7.3984-3.3164-7.3984-7.3984 0-4.0859 3.3164-7.3984 7.3984-7.3984 4.0859 0 7.3984 3.3164 7.3984 7.3984 0.003906 4.082-3.3125 7.3984-7.3984 7.3984z"/>
  <path d="m306.42 237.38c3.2422-1.2227 6.7188-1.9766 10.383-1.9766h3.3242c4.5195-9.2656 13.32-16.199 24.027-17.723l22.723-3.25c3.6328-0.51953 7.0586-2.2344 9.6562-4.8242l14.266-14.273 15.945 15.953c1.8633 1.8633 4.168 3.2852 6.6602 4.1211 9.6641 3.2188 16.945 10.738 20.082 19.992l1.7109 0.003906c3.6641 0 7.1406 0.75391 10.383 1.9766l2.1523-8.5977c1.4961-6.0312 2.2656-12.238 2.2656-18.457 0.007812-14.719-6.5781-28.422-18.062-37.613-9.2734-7.4219-20.305-11.305-31.496-11.305h-49.555-0.015625c-10.746 0-21.297 3.6992-29.703 10.434-12.348 9.8789-19.164 24.012-19.164 39.16 0 5.7734 0.71094 11.543 2.1016 17.137z"/>
  <path d="m435.2 294.61h-4.3594c-0.21484 0.52344-0.42969 1.0352-0.66016 1.5547 5.8984 3.75 12.746 5.8438 19.82 5.8438 20.402 0 37-16.598 37-37 0-15.723-10.152-29.598-24.516-34.793-0.16406 0.71875-0.22266 1.4492-0.39844 2.1602l-3.6328 14.531c3.9102 5.0195 6.3438 11.258 6.3438 18.105 0 16.32-13.273 29.598-29.598 29.598z"/>
  <path d="m353.8 457.4h56.125l-33.031-33.031c-5.3477-5.3594-8.293-12.469-8.293-20.031 0-15.629 12.711-28.336 28.328-28.336h-43.129z"/>
  <path d="m450 265.01c0-8.1602-6.6367-14.801-14.801-14.801v22.199c0 2.5078-0.20703 4.9727-0.51172 7.3984h0.51172c8.1602 0 14.801-6.6367 14.801-14.797z"/>
  <path d="m398.2 376h-1.2734c0.42969 0 0.84375 0.10547 1.2734 0.125z"/>
  <path d="m242.81 250.21c0-8.1602-6.6367-14.801-14.801-14.801-8.1602 0-14.801 6.6367-14.801 14.801v14.801h29.598z"/>
  <path d="m435.2 575.79h-82.699c0.82031 2.3242 1.3008 4.8047 1.3008 7.3984 0 2.6055-0.53125 5.0781-1.3633 7.3984l82.762 0.003906c4.0859 0 7.3984-3.3242 7.3984-7.3984 0-4.0781-3.3125-7.4023-7.3984-7.4023z"/>
  <path d="m427.8 560.99h7.3984c2.6055 0 5.0781 0.53125 7.3984 1.3633v-72.297l-14.801-14.801z"/>
  <path d="m239.33 357.99c13.559 11.617 30.844 18.008 48.684 18.008h21.391v96.195h14.801v-14.801h14.801v-110.99h-50.09c-7.207 0-14.164-1.6484-20.684-4.9141-15.797-7.9023-25.422-23.473-25.422-40.785v-20.898h-29.598v21.387c-0.003907 21.871 9.5195 42.57 26.117 56.801z"/>
  <path d="m493.62 467.03c0.50781-2.0859 0.77734-4.2383 0.77734-6.3906v-52.664c0-13.875-5.4023-26.922-15.215-36.727-6.9922-6.9922-15.797-11.832-25.453-13.977l-40.73-9.043v32.816c1.3906 0.96875 2.7383 2.0352 3.957 3.2578l60.469 60.465-10.465 10.465-39.16-39.172-19.137 19.137 46.441 46.434c3.4023 3.4023 8.125 5.3555 12.941 5.3555 12.113 0.007813 22.629-8.1992 25.574-19.957z"/>
  <path d="m499.52 487c-7.6289 9.1172-18.965 14.801-31.477 14.801-3.6914 0-7.2461-0.73438-10.641-1.8867v83.281c0 2.6055-0.53125 5.0781-1.3633 7.3984l134.56 0.003906v-103.6z"/>
  <path d="m413 472.2h-73.996v88.797h73.996zm-14.801 44.398h-14.801v29.598h-14.801v-29.598h-14.801v-14.801h14.801v-14.801h14.801v14.801h14.801z"/>
  <path d="m331.6 575.79h-7.3984v-88.797h-162.79v103.6h170.19c4.0859 0 7.3984-3.3242 7.3984-7.3984 0.003906-4.0781-3.3125-7.4023-7.3984-7.4023z"/>
 </g>
</svg>
