<?xml version="1.0" encoding="UTF-8"?>
<svg width="752pt" height="752pt" version="1.1" viewBox="0 0 752 752" xmlns="http://www.w3.org/2000/svg">
 <path d="m366.96 399.12c6.8945-1.2031 14.223-3.0312 21.805-5.4258l0.023437-0.035157 2.0352-0.67578c13.941-4.6016 28.691-9.9375 40.527-16.297-21.543-31.047-57.402-51.41-98.055-51.41h-13.867c-65.902 0-119.33 53.426-119.33 119.33 0 17.93 14.539 32.477 32.477 32.477h122.99c-0.03125-1.0859-0.14844-2.1445-0.14844-3.2344l0.007813-61.066c-0.003907-6.7539 4.8477-12.504 11.531-13.664zm-40.594-82.836c42.355 0 76.691-34.336 76.691-76.695 0-42.355-34.336-76.691-76.691-76.691-42.355 0-76.691 34.336-76.691 76.691-0.007812 42.355 34.328 76.695 76.691 76.695zm221.45 91.703c-8.1133-1.4102-16.641-3.6172-25.086-6.4414-24.371-8.0273-48.406-17.301-61.074-30.648-0.96094-1.0078-2.2305-1.5156-3.4961-1.5156-1.2656 0-2.5352 0.50781-3.4961 1.5156-12.672 13.344-36.691 22.617-61.031 30.648l-0.046875 0.050781c-8.4883 2.7891-17.012 4.9883-25.09 6.3984-2.3594 0.40625-4.0781 2.4062-4.0781 4.8008v61.078c0 49.777 37.203 93.039 91.871 114.89 0.59375 0.23828 1.2305 0.35547 1.8711 0.35547 0.64063 0 1.2852-0.11719 1.875-0.35156 54.664-21.805 91.871-65.07 91.871-114.89l0.003906-61.09c0-2.3945-1.7344-4.3906-4.0938-4.7969zm-46.027 54.031-48.672 48.688c-1.8945 1.8867-4.4531 2.9492-7.1289 2.9492-2.6758 0-5.2344-1.0664-7.1211-2.9492l-24.352-24.348c-3.9258-3.9297-3.9258-10.309 0-14.246 3.9336-3.9297 10.32-3.9297 14.25 0l17.223 17.234 41.559-41.57c3.9414-3.9336 10.316-3.9336 14.246-0.003906 3.9414 3.9414 3.9414 10.316-0.003906 14.246z" fill="#00449e"/>
</svg>
