<?xml version="1.0" encoding="UTF-8"?>
<svg width="752pt" height="752pt" version="1.1" viewBox="0 0 752 752" xmlns="http://www.w3.org/2000/svg">
 <defs>
  <clipPath id="b">
   <path d="m174 416h404v196.79h-404z"/>
  </clipPath>
  <clipPath id="a">
   <path d="m263 139.21h215v213.79h-215z"/>
  </clipPath>
 </defs>
 <g>
  <g clip-path="url(#b)">
   <path d="m387.84 489.36 16.059 123.43h-60.75l17.609-123.43zm13.395-71.332v54.461h-50.539v-54.461c8.2891-1.0352 16.723-1.6289 25.234-1.6289 8.6562 0 17.016 0.59375 25.305 1.6289zm-67.336 2.8867v60.012c0 4.6602 3.7734 8.4375 8.4375 8.4375h1.4062l-17.613 123.43h-151.99c3.7734-94.57 71.113-172.79 159.76-191.88zm86.945 191.88v-0.51953l-16.059-122.98h4.8828c4.6602 0 8.4375-3.7734 8.4375-8.4375v-60.012c88.648 19.168 155.98 97.383 159.76 191.95h-157.02z" fill="#00449e"/>
  </g>
  <g clip-path="url(#a)">
   <path d="m370.38 139.21c58.828 0 106.63 47.801 106.63 106.63s-47.801 106.63-106.63 106.63c-58.754 0-106.55-47.801-106.55-106.63-0.078125-58.828 47.727-106.63 106.55-106.63z" fill="#00449e"/>
  </g>
 </g>
</svg>
