<?xml version="1.0" encoding="UTF-8"?>
<svg width="752pt" height="752pt" version="1.1" viewBox="0 0 752 752" xmlns="http://www.w3.org/2000/svg">
 <g fill="#00449e">
  <path d="m583.19 538.79h-147.99v44.398h147.99zm-118.39 37h-14.797v-14.801h14.801z"/>
  <path d="m560.99 524 0.14062-198.72-122.92-122.93-5.2695 5.2305v0.003906c-4.1484 4.1758-6.4727 9.8242-6.4727 15.707 0 5.8867 2.3242 11.535 6.4727 15.711l81.398 79.918c1.3945 1.4023 2.168 3.3047 2.1523 5.2812h0.10547v118.4h-14.801v-111c-5.8867 0-11.535 2.3398-15.699 6.5039-4.1602 4.1641-6.5 9.8086-6.5 15.695v54.391c-0.003906 3.1484-1.9961 5.9492-4.9727 6.9844-7.2109 2.5352-13.453 7.2461-17.863 13.484-4.4141 6.2383-6.7773 13.695-6.7617 21.34v37-0.003906c0.011719 9.8086 3.9102 19.215 10.848 26.148 6.9375 6.9375 16.34 10.84 26.148 10.852z"/>
  <path d="m375.8 419.3c16.215-9.2656 83.078-49.816 88.641-91.203 1.5469-14.043-4.1758-27.902-15.184-36.762l-0.066406-0.074219c-7.6719-7.3516-17.891-11.457-28.52-11.457-10.625 0-20.844 4.1055-28.516 11.457l-11.227 10.906v0.003906c-2.8711 2.7891-7.4453 2.7891-10.316 0l-11.234-10.906 0.003906-0.003906c-7.6133-7.3086-17.773-11.355-28.328-11.281-10.691-0.03125-20.988 4.0312-28.777 11.355-10.668 8.6406-16.215 22.109-14.723 35.758 5.3555 41.402 72.07 82.75 88.246 92.207zm-44.199-124.7v14.801-0.003906c-3.9219 0-7.6875 1.5625-10.465 4.3359-2.7734 2.7773-4.332 6.5391-4.332 10.465h-14.801c0-7.8516 3.1172-15.379 8.668-20.93 5.5508-5.5508 13.082-8.668 20.93-8.668z"/>
  <path d="m313.79 202.34-122.93 122.93 0.14844 198.73h74c9.8086-0.011719 19.211-3.9141 26.148-10.852 6.9336-6.9336 10.836-16.34 10.848-26.148v-36.996c0.015625-7.6445-2.3477-15.102-6.7617-21.34-4.4102-6.2383-10.656-10.949-17.863-13.484-2.9766-1.0352-4.9727-3.8359-4.9727-6.9844v-54.391c0-5.8867-2.3398-11.531-6.5039-15.695-4.1602-4.1641-9.8086-6.5039-15.695-6.5039v111h-14.801v-118.39h0.066406c-0.015625-1.9766 0.75781-3.8789 2.1562-5.2812l81.469-79.984c4.1328-4.1758 6.4492-9.8086 6.4492-15.68 0-5.875-2.3164-11.508-6.4492-15.68z"/>
  <path d="m168.81 583.19h148v-44.398h-148zm118.39-22.199h14.801v14.801h-14.801z"/>
 </g>
</svg>
