<?xml version="1.0" encoding="UTF-8"?>
<svg width="752pt" height="752pt" version="1.1" viewBox="0 0 752 752" xmlns="http://www.w3.org/2000/svg">
 <g fill="#00449e">
  <path d="m481.61 330.06c0-42.621-39.781-89.98-71.984-114.61 9.4727-19.418 19.891-43.098 19.891-52.094 0-11.367-14.207-17.523-23.207-5.2109-11.363 16.105-16.102-7.1016-29.359-7.1016-12.789 0-19.891 21.312-29.836 7.1016-9.4727-13.262-25.102-5.2109-25.102 5.2109 0 12.312 9.9453 35.047 18.941 53.043-31.73 25.102-71.039 71.512-71.039 114.13 0 61.566 47.359 90.453 105.61 90.453 58.727 0 106.09-29.363 106.09-90.93zm-110.34-24.625h9.4727c19.891 0 35.52 17.051 33.625 37.414-1.4219 15.156-13.262 26.992-27.941 29.836v13.734c0 1.4219-1.4219 2.8398-2.8398 2.8398h-15.156c-1.4219 0-2.8398-1.4219-2.8398-2.8398v-13.262c-15.156-2.3672-26.992-15.156-27.941-30.309 0-1.4219 1.4219-2.8398 2.8398-2.8398h15.156c1.4219 0 2.3672 0.94531 2.8398 1.8945 0.94531 6.1562 6.6289 10.891 12.785 10.891h8.9961c6.6289 0 12.312-4.2617 13.734-10.891 1.4219-8.0508-4.7344-15.156-12.785-15.156h-8.0508c-17.523 0-33.625-12.785-35.047-30.309-1.8945-18.469 10.891-34.098 27.941-36.938v-13.262c0-1.4219 1.4219-2.8398 2.8398-2.8398h15.156c1.4219 0 2.8398 1.4219 2.8398 2.8398v13.262c15.156 2.3672 26.992 15.156 27.941 30.309 0 1.4219-1.4219 2.8398-2.8398 2.8398h-15.156c-1.4219 0-2.3672-0.94531-2.8398-1.8945-0.94531-6.1562-6.6289-10.891-12.785-10.891h-8.9961c-6.6289 0-12.312 4.2617-13.734 10.891-1.4219 7.5781 4.7344 14.68 12.785 14.68z"/>
  <path d="m334.33 472.14-59.199-54.461c-2.8398-2.3672-6.1562-3.7891-9.9453-3.7891-3.7891 0-7.1055 1.8945-9.4727 4.2617-4.2617 4.7344-4.7344 11.367-1.4219 16.574l1.8945 2.8398c9.4727 14.68 20.363 27.941 32.203 40.727l10.891 11.84c1.8945 1.8945 2.3672 4.2617 2.3672 6.6289 0 2.3672-0.94531 4.7344-2.8398 6.1562-1.8945 1.4219-4.2617 2.3672-6.6289 2.3672-2.3672 0-4.7344-0.94531-6.1562-2.8398l-10.418-10.891c-13.262-13.734-25.102-28.887-35.52-44.988l-0.94531-1.8945c-7.5781-11.84-7.1055-27.469 2.3672-38.359l2.8398-2.8398-24.625-45.938c-2.8398-5.2109-8.5234-8.5234-14.68-8.5234-4.7344 0-8.5234 2.3672-11.367 5.6836-2.8398 3.3164-4.2617 8.0508-3.7891 12.312l16.102 123.61c1.4219 11.367 7.5781 22.258 16.574 29.363l47.359 38.359c2.8398 2.3672 4.7344 5.6836 5.2109 9.4727l3.3164 27.469c0.47266 2.8398 2.3672 4.7344 5.2109 4.7344h70.562c3.3164 0 5.6836-2.8398 5.2109-6.1562l-12.789-99.453c-1.4219-8.5273-6.1562-16.578-12.312-22.262z"/>
  <path d="m557.86 355.64c-2.8398-3.3164-7.1055-5.6836-11.367-5.6836-6.1562-0.47266-11.84 3.3164-14.68 8.5234l-24.625 45.941c0.94531 0.94531 1.8945 1.8945 2.8398 2.8398 9.4727 10.418 10.418 26.52 2.3672 38.359l-0.94531 1.4219c-10.418 16.102-22.258 30.781-35.52 44.988l-10.418 10.891c-1.4219 1.8945-3.7891 2.8398-6.1562 2.8398-2.3672 0-4.7344-0.94531-6.6289-2.3672-1.8945-1.8945-2.8398-3.7891-2.8398-6.1562s0.94531-4.7344 2.3672-6.6289l10.891-11.84c11.84-12.785 22.73-26.047 32.203-40.727l1.8945-2.8398c3.3164-5.2109 2.8398-11.84-1.4219-16.574-2.3672-2.8398-5.6836-4.2617-9.4727-4.2617s-7.1055 0.94531-9.9453 3.7891l-58.723 53.984c-6.6289 5.6836-10.891 13.734-12.312 22.73l-13.262 100.4c-0.47266 3.3164 1.8945 6.1562 5.2109 6.1562h70.562c2.8398 0 4.7344-1.8945 5.2109-4.7344l3.3164-27.469c0.47266-3.7891 2.3672-7.1055 5.2109-9.4727l47.359-38.359c8.9961-7.1055 15.156-17.996 16.574-29.363l16.102-123.61c0.46875-4.7305-0.94922-8.9922-3.793-12.781z"/>
 </g>
</svg>
