<?xml version="1.0" encoding="UTF-8"?>
<svg width="752pt" height="752pt" version="1.1" viewBox="0 0 752 752" xmlns="http://www.w3.org/2000/svg">
 <g fill="#00449e">
  <path d="m531.81 382.63c0-33.625-34.57-61.094-77.195-61.094h-12.309c-13.734 12.785-35.992 21.312-61.094 21.312-25.102 0-47.359-8.5234-61.094-21.312h-8.9961c-44.516 0-80.508 27.469-80.508 61.094z"/>
  <path d="m381.21 326.75c50.199 0 90.453-40.727 90.453-90.453 0-50.199-40.727-90.453-90.453-90.453-50.199 0-90.453 40.727-90.453 90.453-0.47266 49.723 40.254 90.453 90.453 90.453zm-68.195-107.5c8.5234 4.2617 23.207 9.9453 40.254 9.9453 12.312 0 25.574-2.8398 38.359-11.84 1.4219-0.94531 32.203-23.207 56.828-0.94531 1.8945 6.1562 2.8398 13.262 2.8398 19.891 0 38.832-31.73 70.09-70.09 70.09s-70.09-31.73-70.09-70.09c-0.46875-6.1602 0.47656-11.84 1.8984-17.051z"/>
  <path d="m412.94 498.18c0 17.527-14.207 31.73-31.73 31.73-17.523 0-31.73-14.203-31.73-31.73 0-17.523 14.207-31.727 31.73-31.727 17.523 0 31.73 14.203 31.73 31.727"/>
  <path d="m593.85 593.85h-49.727c3.3164-4.2617 5.2109-9.4727 5.2109-15.156v-161.96c0-13.734-10.891-24.625-24.625-24.625l-287.46-0.003907c-13.734 0-24.625 10.891-24.625 24.625v162.44c0 5.6836 1.8945 10.891 5.2109 15.156h-56.359c-2.8398 0-4.7344 2.3672-4.7344 4.7344v0.47266c0 2.8398 2.3672 4.7344 4.7344 4.7344l432.38 0.003906c2.8398 0 4.7344-2.3672 4.7344-4.7344v-0.47266c0.003907-2.8438-1.8906-5.2109-4.7344-5.2109zm-148.7-87.613c0 1.8945-1.4219 3.3164-3.3164 3.3164h-10.418c-1.4219 5.6836-3.3164 10.891-6.6289 15.629l7.1055 7.1055c0.47266 0.47266 0.94531 1.4219 0.94531 2.3672 0 0.94531-0.47266 1.4219-0.94531 2.3672l-11.367 11.367c-0.47266 0.47266-1.4219 0.94531-2.3672 0.94531-0.94531 0-1.4219-0.47266-2.3672-0.94531l-6.6289-6.6289c-5.2109 3.3164-10.891 5.6836-17.051 7.1055v9.4727c0 1.8945-1.4219 3.3164-3.3164 3.3164h-16.102c-1.8945 0-3.3164-1.4219-3.3164-3.3164v-9.4727c-6.1562-1.4219-12.312-3.7891-17.523-7.5781l-8.0508 8.0508c-0.47266 0.47266-1.4219 0.94531-2.3672 0.94531-0.94531 0-1.4219-0.47266-2.3672-0.94531l-11.367-11.367c-0.47266-0.47266-0.94531-1.4219-0.94531-2.3672 0-0.94531 0.47266-1.8945 0.94531-2.3672l8.0508-8.0508c-2.8398-4.7344-5.2109-9.9453-6.1562-15.629h-10.418c-1.8945 0-3.3164-1.4219-3.3164-3.3164v-16.102c0-1.8945 1.4219-3.3164 3.3164-3.3164h10.418c1.4219-6.1562 3.7891-12.312 7.1055-17.051l-8.9961-8.9961c-0.47266-0.47266-0.94531-1.4219-0.94531-2.3672s0.47266-1.8945 0.94531-2.3672l11.367-11.367c1.4219-1.4219 3.3164-1.4219 4.7344 0l9.4727 9.4727c4.7344-2.8398 10.418-5.2109 16.102-6.6289v-10.891c0-1.8945 1.4219-3.3164 3.3164-3.3164h16.102c1.8945 0 3.3164 1.4219 3.3164 3.3164v10.891c5.6836 1.4219 10.891 3.3164 15.629 6.6289l8.5234-8.5234c1.4219-1.4219 3.3164-1.4219 4.7344 0l11.367 11.367c0.47266 0.47266 0.94531 1.4219 0.94531 2.3672 0 0.94531-0.47266 1.8945-0.94531 2.3672l-8.5234 8.5234c3.3164 5.2109 5.6836 10.891 7.1055 17.051h10.418c1.8945 0 3.3164 1.4219 3.3164 3.3164l-0.007813 15.621z"/>
 </g>
</svg>
